<svg width="129" height="25" viewBox="0 0 129 25" fill="none" xmlns="http://www.w3.org/2000/svg">
<path fill-rule="evenodd" clip-rule="evenodd" d="M65.9654 1.00396C65.6781 0.988165 65.3845 0.980268 65.0846 0.980268H57.5039V24.18H65.0846C65.3836 24.18 65.6771 24.1713 65.9654 24.154V23.1072C65.6785 23.1253 65.3849 23.1344 65.0846 23.1344H58.6475V2.02589H65.0846C65.3851 2.02589 65.6786 2.03514 65.9654 2.05363V1.00396ZM0.0981445 0.980268V24.18H15.4557V23.1344H1.24179V0.980268H0.0981445ZM21.7138 23.8205C22.7159 24.278 23.7833 24.5067 24.9161 24.5067C26.0706 24.5067 27.138 24.278 28.1183 23.8205C29.1203 23.3631 29.9917 22.7314 30.7323 21.9254C31.4948 21.0976 32.0829 20.1609 32.4968 19.1152C32.9107 18.0478 33.1176 16.926 33.1176 15.7497C33.1176 14.5516 32.8998 13.4188 32.4641 12.3514C32.0502 11.284 31.4621 10.3473 30.6996 9.54129C29.959 8.7135 29.0876 8.07088 28.0856 7.61342C27.1053 7.15597 26.0488 6.92724 24.9161 6.92724C23.8051 6.92724 22.7486 7.15597 21.7465 7.61342C20.7445 8.07088 19.8731 8.7135 19.1325 9.54129C18.3918 10.3473 17.8037 11.284 17.368 12.3514C16.9541 13.4188 16.7471 14.5516 16.7471 15.7497C16.7471 16.926 16.9541 18.0478 17.368 19.1152C17.7819 20.1609 18.3591 21.0976 19.0998 21.9254C19.8404 22.7314 20.7118 23.3631 21.7138 23.8205ZM18.8057 19.6707C18.174 18.4944 17.8581 17.1983 17.8581 15.7823C17.8581 14.3664 18.174 13.0703 18.8057 11.8939C19.4592 10.6958 20.3197 9.74823 21.3871 9.05115C22.4763 8.33229 23.6526 7.97286 24.9161 7.97286C26.2013 7.97286 27.3776 8.3214 28.445 9.01848C29.5124 9.71556 30.362 10.6523 30.9937 11.8286C31.6472 13.0049 31.974 14.301 31.974 15.717C31.974 17.1111 31.6472 18.4073 30.9937 19.6054C30.362 20.7817 29.5124 21.7184 28.445 22.4155C27.3776 23.1126 26.1904 23.4611 24.8834 23.4611C23.5981 23.4611 22.4218 23.1235 21.3544 22.4482C20.287 21.7511 19.4374 20.8253 18.8057 19.6707ZM37.6287 8.16891V24.18H38.7396V8.16891H43.7063V7.18864H38.7396V6.5678C38.7396 4.75975 39.0555 3.38737 39.6872 2.45067C40.319 1.49219 41.223 1.01294 42.3993 1.01294C42.9003 1.01294 43.3796 1.08919 43.837 1.24167C44.2945 1.39416 44.6648 1.60111 44.948 1.86251L45.5035 1.11097C45.1767 0.784215 44.7084 0.52281 44.0984 0.326756C43.5103 0.108919 42.9003 0 42.2686 0C41.3101 0 40.4823 0.261405 39.7853 0.784215C39.0882 1.30703 38.5545 2.05856 38.1842 3.03883C37.8138 4.0191 37.6287 5.19543 37.6287 6.5678V7.18864H35.2107V8.16891H37.6287ZM53.5292 23.6898C53.8342 23.5156 54.0084 23.4175 54.052 23.3958L53.6272 22.4808C53.5837 22.5244 53.3005 22.6769 52.7777 22.9383C52.2766 23.1779 51.6667 23.2977 50.9478 23.2977C50.3814 23.2977 49.8804 23.1344 49.4447 22.8076C49.0091 22.4808 48.7694 22.0016 48.7259 21.3699V8.16891H52.745V7.18864H48.7259V1.3397H47.6149V7.18864H45.1969V8.16891H47.6149V21.5332C47.6149 22.1214 47.7565 22.6333 48.0397 23.069C48.3229 23.4829 48.7041 23.7988 49.1833 24.0166C49.6626 24.2344 50.1854 24.3434 50.7518 24.3434C51.3617 24.3434 51.8954 24.278 52.3529 24.1473C52.8321 23.9948 53.2242 23.8423 53.5292 23.6898Z" fill="white"/>
<path fill-rule="evenodd" clip-rule="evenodd" d="M65.9656 24.1538C67.8201 24.0422 69.4542 23.5716 70.8682 22.7421C72.5237 21.7837 73.7981 20.4331 74.6912 18.6904C75.5843 16.9477 76.0309 14.9 76.0309 12.5473C76.0309 10.4125 75.617 8.47379 74.7892 6.73109C73.9832 4.9666 72.7742 3.57244 71.1622 2.5486C69.7484 1.63153 68.0162 1.11662 65.9656 1.00388V2.05355C67.6958 2.16517 69.1775 2.61337 70.4107 3.39817C71.8702 4.2913 72.9812 5.53298 73.7436 7.12319C74.5061 8.71341 74.8873 10.5215 74.8873 12.5473C74.8873 14.5297 74.5169 16.3268 73.7763 17.9388C73.0356 19.5508 71.9356 20.8252 70.4761 21.7619C69.2219 22.5481 67.7184 22.9965 65.9656 23.1071V24.1538ZM84.099 23.8204C85.1228 24.2779 86.2011 24.5066 87.3339 24.5066C88.3577 24.5066 89.3271 24.3324 90.242 23.9838C91.1787 23.6353 91.9956 23.1451 92.6927 22.5134C93.3898 21.8817 93.9017 21.1737 94.2284 20.3895L93.2155 20.1281C92.758 21.1302 91.9847 21.9579 90.8955 22.6114C89.8063 23.2432 88.6409 23.559 87.3992 23.559C86.1576 23.559 85.003 23.2323 83.9356 22.5788C82.89 21.9253 82.0295 21.043 81.3542 19.932C80.7007 18.8211 80.3195 17.5794 80.2106 16.207H95.4374C95.4592 16.1199 95.4701 16.0328 95.4701 15.9456V15.6842C95.4701 14.0722 95.0998 12.6127 94.3591 11.3057C93.6185 9.97687 92.6273 8.92035 91.3857 8.13614C90.1658 7.33014 88.7716 6.92714 87.2032 6.92714C85.6783 6.92714 84.295 7.31925 83.0534 8.10346C81.8335 8.88768 80.8641 9.9333 80.1452 11.2403C79.4264 12.5473 79.0669 13.996 79.0669 15.5862C79.0669 16.8061 79.2739 17.9606 79.6878 19.0498C80.1235 20.1172 80.7116 21.0648 81.4523 21.8926C82.2147 22.6986 83.0969 23.3412 84.099 23.8204ZM94.3591 15.2594H80.1779C80.265 13.8435 80.6245 12.58 81.2562 11.4691C81.9097 10.3581 82.7484 9.48673 83.7722 8.855C84.8179 8.22327 85.9724 7.90741 87.2358 7.90741C88.5211 7.90741 89.6865 8.22327 90.7321 8.855C91.7778 9.48673 92.6164 10.3581 93.2482 11.4691C93.9017 12.5582 94.272 13.8217 94.3591 15.2594ZM100.669 23.8531C101.802 24.2888 103.022 24.5066 104.329 24.5066C106.246 24.5066 107.781 24.071 108.936 23.1996C110.112 22.3065 110.7 21.0975 110.7 19.5726C110.7 18.5923 110.439 17.8299 109.916 17.2853C109.393 16.7407 108.642 16.305 107.661 15.9783C106.703 15.6298 105.559 15.2921 104.231 14.9653C103.228 14.7039 102.401 14.4643 101.747 14.2465C101.094 14.0069 100.604 13.691 100.277 13.2989C99.95 12.9068 99.7866 12.3513 99.7866 11.6324C99.7866 10.7393 100.015 10.0313 100.473 9.50851C100.93 8.96392 101.529 8.56092 102.27 8.29952C103.011 8.03811 103.817 7.90741 104.688 7.90741C105.755 7.90741 106.736 8.08168 107.629 8.43022C108.544 8.77876 109.241 9.29068 109.72 9.96597L110.439 9.34514C110.003 8.64806 109.295 8.07079 108.315 7.61333C107.335 7.15587 106.169 6.92714 104.819 6.92714C103.708 6.92714 102.684 7.10141 101.747 7.44995C100.832 7.79849 100.092 8.33219 99.5252 9.05106C98.9806 9.74814 98.7083 10.6631 98.7083 11.7958C98.7083 12.6889 98.9044 13.386 99.2965 13.8871C99.6886 14.3881 100.266 14.7911 101.028 15.096C101.813 15.3792 102.793 15.6733 103.969 15.9783C105.167 16.2615 106.18 16.5447 107.008 16.8279C107.857 17.0893 108.5 17.4378 108.936 17.8735C109.393 18.3092 109.622 18.9191 109.622 19.7033C109.622 20.9014 109.132 21.8381 108.152 22.5134C107.171 23.1887 105.886 23.5264 104.296 23.5264C103.141 23.5264 102.085 23.3194 101.126 22.9055C100.168 22.4916 99.2311 21.849 98.3162 20.9777L97.7281 21.7619C98.5776 22.6986 99.5579 23.3957 100.669 23.8531ZM120.163 14.7693L127.091 24.1799H128.365L120.948 14.0504L128.169 7.2539H126.829L115.818 17.3833V0.32666H114.707V24.1799H115.818V18.723L120.163 14.7693Z" fill="#464E2E"/>
</svg>
